<svg xmlns="http://www.w3.org/2000/svg" viewBox="0 0 1024 1024" role="img" aria-labelledby="title desc">
  <title id="title">Mainline logo</title>
  <desc id="desc">A black monkey-like mark hanging from a bar while holding an intent record.</desc>
  <defs>
    <filter id="soft-shadow" x="-20%" y="-20%" width="140%" height="140%">
      <feDropShadow dx="0" dy="22" stdDeviation="28" flood-color="#151511" flood-opacity=".18"/>
    </filter>
  </defs>
  <rect width="1024" height="1024" fill="#f7f5ef"/>
  <rect x="128" y="128" width="768" height="768" rx="164" fill="#fffdf7" filter="url(#soft-shadow)"/>
  <rect x="232" y="260" width="560" height="52" rx="26" fill="#050505"/>
  <path d="M506 298c-70 72-106 141-96 221" fill="none" stroke="#050505" stroke-width="78" stroke-linecap="round"/>
  <path d="M478 236c25-26 68-26 94 0 25-18 64-12 82 14 22 30 12 73-22 90-22 11-48 7-66-8-26 23-68 22-92-2-21 19-56 20-78 3-30-24-29-70 1-94 23-18 57-19 81-3z" fill="#050505"/>
  <g fill="#fffdf7" stroke="#050505" stroke-width="14" stroke-linecap="round">
    <path d="M454 256v52"/>
    <path d="M500 246v64"/>
    <path d="M548 246v64"/>
    <path d="M596 258v52"/>
  </g>
  <circle cx="374" cy="526" r="66" fill="#050505"/>
  <circle cx="374" cy="526" r="40" fill="#fffdf7"/>
  <circle cx="650" cy="526" r="66" fill="#050505"/>
  <circle cx="650" cy="526" r="40" fill="#fffdf7"/>
  <circle cx="512" cy="584" r="164" fill="#050505"/>
  <circle cx="512" cy="574" r="112" fill="#fffdf7"/>
  <circle cx="456" cy="548" r="22" fill="#050505"/>
  <circle cx="568" cy="548" r="22" fill="#050505"/>
  <ellipse cx="512" cy="592" rx="24" ry="15" fill="#050505"/>
  <path d="M462 634c33 36 68 36 101 0" fill="none" stroke="#050505" stroke-width="15" stroke-linecap="round"/>
  <path d="M616 612c93 38 137 101 132 188" fill="none" stroke="#050505" stroke-width="72" stroke-linecap="round"/>
  <g fill="#fffdf7" stroke="#050505" stroke-width="22" stroke-linejoin="round">
    <path d="M656 698h154c22 0 40 18 40 40v94c0 24-19 43-43 43H657z"/>
    <path d="M656 875h150c-18 0-32-15-32-33s14-33 32-33H654z"/>
    <path d="M809 698c35 0 58 27 58 59s-22 58-52 58h-32v-51h30c11 0 20-9 20-20s-9-20-20-20h-32z"/>
  </g>
  <circle cx="742" cy="785" r="41" fill="#f28c0f"/>
</svg>
