<svg xmlns="http://www.w3.org/2000/svg" width="1200" height="630" viewBox="0 0 1200 630">
  <rect width="1200" height="630" fill="#f7f5ef"/>
  <path d="M0 80h1200M0 160h1200M0 240h1200M0 320h1200M0 400h1200M0 480h1200M0 560h1200M80 0v630M160 0v630M240 0v630M320 0v630M400 0v630M480 0v630M560 0v630M640 0v630M720 0v630M800 0v630M880 0v630M960 0v630M1040 0v630M1120 0v630" stroke="#151511" stroke-opacity=".07"/>
  <rect x="72" y="72" width="1056" height="486" fill="#fffdf7" stroke="#151511" stroke-width="6"/>
  <rect x="106" y="106" width="86" height="86" fill="#00a878" stroke="#151511" stroke-width="5"/>
  <text x="149" y="164" text-anchor="middle" font-size="54" font-family="Georgia, serif" font-weight="900" fill="#151511">M</text>
  <text x="106" y="282" font-size="82" font-family="Georgia, serif" font-weight="900" fill="#151511">Mainline</text>
  <text x="106" y="365" font-size="48" font-family="Helvetica Neue, Arial, sans-serif" font-weight="800" fill="#151511">Git-native intent memory</text>
  <text x="106" y="430" font-size="34" font-family="Helvetica Neue, Arial, sans-serif" fill="#5f6258">Give coding agents the historical why before they edit the current what.</text>
  <rect x="760" y="126" width="296" height="300" fill="#191b18" stroke="#151511" stroke-width="5"/>
  <text x="790" y="180" font-size="24" font-family="Menlo, monospace" fill="#d7f7e9">$ mainline context</text>
  <text x="790" y="240" font-size="22" font-family="Menlo, monospace" fill="#00a878">anti_patterns</text>
  <text x="790" y="292" font-size="22" font-family="Menlo, monospace" fill="#f2b84b">risks</text>
  <text x="790" y="344" font-size="22" font-family="Menlo, monospace" fill="#3aa6b9">decisions</text>
  <rect x="826" y="398" width="260" height="96" fill="#f2b84b" stroke="#151511" stroke-width="5"/>
  <text x="956" y="457" text-anchor="middle" font-size="30" font-family="Helvetica Neue, Arial, sans-serif" font-weight="800" fill="#151511">before edits</text>
</svg>
